PathFileType	4	(X/Y/Z)	C:\Users\italobelli\Desktop\GitHub\PTbot_officialCBL\Personal_Results\SHRUG23_noisy1.trc
DataRate	CameraRate	NumFrames	NumMarkers	Units	OrigDataRate	OrigDataStartFrame	OrigNumFrames
108.909091	108.909091	25	9	m	108.909091	1	600
Frame#	Time		gu		centelbow		EpL		centpxt8		centijc7		ij		ts		aa		ai
			X1	Y1	Z1	X2	Y2	Z2	X3	Y3	Z3	X4	Y4	Z4	X5	Y5	Z5	X6	Y6	Z6	X7	Y7	Z7	X8	Y8	Z8	X9	Y9	Z9

1	0	-0.099626	-0.009668	0.16283	-0.16038	-0.25546	0.18049	-0.14563	-0.25284	0.20904	-0.046816	-0.15316	-0.008669	-0.046816	0.031938	-0.008669	0	0	0	-0.13478	0.039812	0.043782	-0.12078	0.029576	0.16178	-0.16698	-0.06904	0.043426
2	0.009182	-0.099656	-0.0096697	0.16279	-0.16075	-0.25557	0.18046	-0.14601	-0.25295	0.20902	-0.046816	-0.15316	-0.008669	-0.046816	0.031938	-0.008669	0	0	0	-0.13478	0.039815	0.043793	-0.12082	0.02958	0.16179	-0.167	-0.069032	0.043431
3	0.018364	-0.099686	-0.0096714	0.16274	-0.16113	-0.25568	0.18043	-0.14639	-0.25306	0.20899	-0.046816	-0.15316	-0.008669	-0.046816	0.031938	-0.008669	0	0	0	-0.13479	0.039819	0.043804	-0.12085	0.029584	0.16181	-0.16702	-0.069025	0.043437
4	0.027546	-0.099716	-0.009673	0.1627	-0.16149	-0.25578	0.1804	-0.14676	-0.25317	0.20897	-0.046816	-0.15316	-0.008669	-0.046816	0.031938	-0.008669	0	0	0	-0.13479	0.039822	0.043815	-0.12088	0.029587	0.16182	-0.16704	-0.069018	0.043443
5	0.036728	-0.099745	-0.0096746	0.16266	-0.16186	-0.25589	0.18037	-0.14713	-0.25327	0.20894	-0.046816	-0.15316	-0.008669	-0.046816	0.031938	-0.008669	0	0	0	-0.13479	0.039825	0.043825	-0.12092	0.029591	0.16184	-0.16706	-0.069011	0.043448
6	0.04591	-0.099774	-0.0096762	0.16262	-0.16222	-0.25599	0.18034	-0.1475	-0.25337	0.20891	-0.046816	-0.15316	-0.008669	-0.046816	0.031938	-0.008669	0	0	0	-0.1348	0.039828	0.043836	-0.12095	0.029594	0.16185	-0.16708	-0.069004	0.043454
7	0.055092	-0.099802	-0.0096777	0.16257	-0.16258	-0.25609	0.18031	-0.14787	-0.25347	0.20889	-0.046816	-0.15316	-0.008669	-0.046816	0.031938	-0.008669	0	0	0	-0.1348	0.03983	0.043846	-0.12099	0.029597	0.16186	-0.16709	-0.068998	0.04346
8	0.064274	-0.099831	-0.0096793	0.16253	-0.16293	-0.25618	0.18028	-0.14823	-0.25357	0.20886	-0.046816	-0.15316	-0.008669	-0.046816	0.031938	-0.008669	0	0	0	-0.13481	0.039833	0.043856	-0.12102	0.0296	0.16188	-0.16711	-0.068991	0.043465
9	0.073456	-0.099859	-0.0096808	0.16249	-0.16328	-0.25627	0.18025	-0.14859	-0.25366	0.20883	-0.046816	-0.15316	-0.008669	-0.046816	0.031938	-0.008669	0	0	0	-0.13481	0.039835	0.043867	-0.12105	0.029603	0.16189	-0.16713	-0.068985	0.043471
10	0.082638	-0.099886	-0.0096822	0.16245	-0.16363	-0.25637	0.18022	-0.14894	-0.25375	0.2088	-0.046816	-0.15316	-0.008669	-0.046816	0.031938	-0.008669	0	0	0	-0.13482	0.039838	0.043877	-0.12108	0.029605	0.1619	-0.16715	-0.068979	0.043477
11	0.09182	-0.099913	-0.0096837	0.16241	-0.16397	-0.25645	0.18019	-0.14929	-0.25384	0.20877	-0.046816	-0.15316	-0.008669	-0.046816	0.031938	-0.008669	0	0	0	-0.13482	0.03984	0.043886	-0.12112	0.029608	0.16192	-0.16716	-0.068974	0.043483
12	0.101	-0.09994	-0.0096851	0.16238	-0.16431	-0.25654	0.18015	-0.14964	-0.25393	0.20874	-0.046816	-0.15316	-0.008669	-0.046816	0.031938	-0.008669	0	0	0	-0.13483	0.039842	0.043896	-0.12115	0.02961	0.16193	-0.16718	-0.068968	0.043489
13	0.11018	-0.099967	-0.0096865	0.16234	-0.16464	-0.25662	0.18012	-0.14998	-0.25401	0.20872	-0.046816	-0.15316	-0.008669	-0.046816	0.031938	-0.008669	0	0	0	-0.13483	0.039844	0.043906	-0.12118	0.029612	0.16194	-0.1672	-0.068963	0.043495
14	0.11937	-0.099993	-0.0096879	0.1623	-0.16497	-0.25671	0.18009	-0.15032	-0.2541	0.20869	-0.046816	-0.15316	-0.008669	-0.046816	0.031938	-0.008669	0	0	0	-0.13484	0.039845	0.043916	-0.12121	0.029614	0.16196	-0.16721	-0.068958	0.043501
15	0.12855	-0.10002	-0.0096893	0.16226	-0.1653	-0.25679	0.18006	-0.15066	-0.25417	0.20866	-0.046816	-0.15316	-0.008669	-0.046816	0.031938	-0.008669	0	0	0	-0.13484	0.039847	0.043925	-0.12124	0.029616	0.16197	-0.16723	-0.068953	0.043507
16	0.13773	-0.10004	-0.0096906	0.16222	-0.16562	-0.25686	0.18002	-0.15099	-0.25425	0.20862	-0.046816	-0.15316	-0.008669	-0.046816	0.031938	-0.008669	0	0	0	-0.13485	0.039848	0.043934	-0.12127	0.029618	0.16198	-0.16725	-0.068948	0.043513
17	0.14691	-0.10007	-0.009692	0.16219	-0.16594	-0.25694	0.17999	-0.15132	-0.25433	0.20859	-0.046816	-0.15316	-0.008669	-0.046816	0.031938	-0.008669	0	0	0	-0.13485	0.039849	0.043944	-0.1213	0.02962	0.16199	-0.16726	-0.068944	0.043519
18	0.15609	-0.1001	-0.0096933	0.16215	-0.16626	-0.25701	0.17996	-0.15165	-0.2544	0.20856	-0.046816	-0.15316	-0.008669	-0.046816	0.031938	-0.008669	0	0	0	-0.13486	0.03985	0.043953	-0.12133	0.029621	0.162	-0.16728	-0.068939	0.043526
19	0.16528	-0.10012	-0.0096946	0.16212	-0.16657	-0.25708	0.17992	-0.15197	-0.25447	0.20853	-0.046816	-0.15316	-0.008669	-0.046816	0.031938	-0.008669	0	0	0	-0.13486	0.039851	0.043962	-0.12136	0.029623	0.16202	-0.1673	-0.068935	0.043532
20	0.17446	-0.10015	-0.0096959	0.16208	-0.16688	-0.25715	0.17989	-0.15228	-0.25454	0.2085	-0.046816	-0.15316	-0.008669	-0.046816	0.031938	-0.008669	0	0	0	-0.13487	0.039852	0.043971	-0.12139	0.029624	0.16203	-0.16731	-0.068931	0.043538
21	0.18364	-0.10017	-0.0096971	0.16204	-0.16718	-0.25722	0.17986	-0.1526	-0.2546	0.20847	-0.046816	-0.15316	-0.008669	-0.046816	0.031938	-0.008669	0	0	0	-0.13488	0.039853	0.04398	-0.12141	0.029626	0.16204	-0.16733	-0.068928	0.043544
22	0.19282	-0.10019	-0.0096984	0.16201	-0.16748	-0.25728	0.17982	-0.1529	-0.25466	0.20843	-0.046816	-0.15316	-0.008669	-0.046816	0.031938	-0.008669	0	0	0	-0.13488	0.039853	0.043989	-0.12144	0.029627	0.16205	-0.16734	-0.068924	0.04355
23	0.202	-0.10022	-0.0096996	0.16198	-0.16777	-0.25734	0.17979	-0.15321	-0.25473	0.2084	-0.046816	-0.15316	-0.008669	-0.046816	0.031938	-0.008669	0	0	0	-0.13489	0.039853	0.043998	-0.12147	0.029628	0.16206	-0.16736	-0.068921	0.043557
24	0.21119	-0.10024	-0.0097009	0.16194	-0.16806	-0.2574	0.17975	-0.15351	-0.25479	0.20837	-0.046816	-0.15316	-0.008669	-0.046816	0.031938	-0.008669	0	0	0	-0.13489	0.039854	0.044007	-0.1215	0.029629	0.16207	-0.16737	-0.068918	0.043563
25	0.22037	-0.10026	-0.0097021	0.16191	-0.16835	-0.25746	0.17972	-0.1538	-0.25484	0.20834	-0.046816	-0.15316	-0.008669	-0.046816	0.031938	-0.008669	0	0	0	-0.1349	0.039854	0.044016	-0.12153	0.02963	0.16209	-0.16739	-0.068915	0.043569
